HIERARCHY
ROOT hip
{
  OFFSET 111.957 85.5748 68.7708
  CHANNELS 6 Xposition Yposition Zposition Zrotation Xrotation Yrotation
  JOINT abdomen
  {
    OFFSET 0 20.6881 -0.73152
    CHANNELS 3 Zrotation Xrotation Yrotation
    JOINT chest
    {
      OFFSET 0 11.7043 -0.48768
      CHANNELS 3 Zrotation Xrotation Yrotation
      JOINT neck
      {
        OFFSET 0 22.1894 -2.19456
        CHANNELS 3 Zrotation Xrotation Yrotation
        JOINT head
        {
          OFFSET -0.24384 7.07133 1.2192
          CHANNELS 3 Zrotation Xrotation Yrotation
          JOINT leftEye
          {
            OFFSET 4.14528 8.04674 8.04672
            CHANNELS 3 Zrotation Xrotation Yrotation
            End Site
            {
              OFFSET 1 0 0
            }
          }
          JOINT rightEye
          {
            OFFSET -3.6576 8.04674 8.04672
            CHANNELS 3 Zrotation Xrotation Yrotation
            End Site
            {
              OFFSET 1 0 0
            }
          }
        }
      }
      JOINT rCollar
      {
        OFFSET -2.68224 19.2634 -4.8768
        CHANNELS 3 Zrotation Xrotation Yrotation
        JOINT rShldr
        {
          OFFSET -8.77824 -1.95073 1.46304
          CHANNELS 3 Zrotation Xrotation Yrotation
          JOINT rForeArm
          {
            OFFSET -28.1742 -1.7115 0.48768
            CHANNELS 3 Zrotation Xrotation Yrotation
            JOINT rHand
            {
              OFFSET -22.5879 0.773209 7.07136
              CHANNELS 3 Zrotation Xrotation Yrotation
              JOINT rThumb1
              {
                OFFSET -1.2192 -0.487915 3.41376
                CHANNELS 3 Zrotation Xrotation Yrotation
                JOINT rThumb2
                {
                  OFFSET -3.37035 -0.52449 3.41376
                  CHANNELS 3 Zrotation Xrotation Yrotation
                  End Site
                  {
                    OFFSET -1.78271 -1.18214 1.43049
                  }
                }
              }
              JOINT rIndex1
              {
                OFFSET -7.75947 0.938293 5.60832
                CHANNELS 3 Zrotation Xrotation Yrotation
                JOINT rIndex2
                {
                  OFFSET -2.54057 -0.884171 1.56538
                  CHANNELS 3 Zrotation Xrotation Yrotation
                  End Site
                  {
                    OFFSET -1.62519 -0.234802 1.16502
                  }
                }
              }
              JOINT rMid1
              {
                OFFSET -8.24714 1.18213 3.41376
                CHANNELS 3 Zrotation Xrotation Yrotation
                JOINT rMid2
                {
                  OFFSET -3.10165 -0.590103 1.0647
                  CHANNELS 3 Zrotation Xrotation Yrotation
                  End Site
                  {
                    OFFSET -2.48547 -0.328903 0.83742
                  }
                }
              }
              JOINT rRing1
              {
                OFFSET -8.82822 0.546677 1.51678
                CHANNELS 3 Zrotation Xrotation Yrotation
                JOINT rRing2
                {
                  OFFSET -2.60934 -0.819778 -0.0198488
                  CHANNELS 3 Zrotation Xrotation Yrotation
                  End Site
                  {
                    OFFSET -2.33842 -0.294052 0.168128
                  }
                }
              }
              JOINT rPinky1
              {
                OFFSET -8.27202 -0.0477905 -0.4584
                CHANNELS 3 Zrotation Xrotation Yrotation
                JOINT rPinky2
                {
                  OFFSET -1.82734 -0.647385 -0.700984
                  CHANNELS 3 Zrotation Xrotation Yrotation
                  End Site
                  {
                    OFFSET -1.69225 -0.51767 -0.607171
                  }
                }
              }
            }
          }
        }
      }
      JOINT lCollar
      {
        OFFSET 2.68224 19.2634 -4.8768
        CHANNELS 3 Zrotation Xrotation Yrotation
        JOINT lShldr
        {
          OFFSET 8.77824 -1.95073 1.46304
          CHANNELS 3 Zrotation Xrotation Yrotation
          JOINT lForeArm
          {
            OFFSET 28.1742 -1.7115 0.48768
            CHANNELS 3 Zrotation Xrotation Yrotation
            JOINT lHand
            {
              OFFSET 22.5879 0.773209 7.07136
              CHANNELS 3 Zrotation Xrotation Yrotation
              JOINT lThumb1
              {
                OFFSET 1.2192 -0.487915 3.41376
                CHANNELS 3 Zrotation Xrotation Yrotation
                JOINT lThumb2
                {
                  OFFSET 3.37035 -0.52449 3.41376
                  CHANNELS 3 Zrotation Xrotation Yrotation
                  End Site
                  {
                    OFFSET 1.78271 -1.18214 1.43049
                  }
                }
              }
              JOINT lIndex1
              {
                OFFSET 7.75947 0.938293 5.60832
                CHANNELS 3 Zrotation Xrotation Yrotation
                JOINT lIndex2
                {
                  OFFSET 2.54057 -0.884171 1.56538
                  CHANNELS 3 Zrotation Xrotation Yrotation
                  End Site
                  {
                    OFFSET 1.62519 -0.234802 1.16502
                  }
                }
              }
              JOINT lMid1
              {
                OFFSET 8.24714 1.18213 3.41376
                CHANNELS 3 Zrotation Xrotation Yrotation
                JOINT lMid2
                {
                  OFFSET 3.10165 -0.590103 1.0647
                  CHANNELS 3 Zrotation Xrotation Yrotation
                  End Site
                  {
                    OFFSET 2.48547 -0.328903 0.83742
                  }
                }
              }
              JOINT lRing1
              {
                OFFSET 8.82822 0.546677 1.51678
                CHANNELS 3 Zrotation Xrotation Yrotation
                JOINT lRing2
                {
                  OFFSET 2.60934 -0.819778 -0.0198488
                  CHANNELS 3 Zrotation Xrotation Yrotation
                  End Site
                  {
                    OFFSET 2.33842 -0.294052 0.168128
                  }
                }
              }
              JOINT lPinky1
              {
                OFFSET 8.27202 -0.0477905 -0.4584
                CHANNELS 3 Zrotation Xrotation Yrotation
                JOINT lPinky2
                {
                  OFFSET 1.82734 -0.647385 -0.700984
                  CHANNELS 3 Zrotation Xrotation Yrotation
                  End Site
                  {
                    OFFSET 1.69225 -0.51767 -0.607171
                  }
                }
              }
            }
          }
        }
      }
    }
  }
  JOINT rButtock
  {
    OFFSET -8.77824 4.35084 1.2192
    CHANNELS 3 Zrotation Xrotation Yrotation
    JOINT rThigh
    {
      OFFSET 0 -1.70687 -2.19456
      CHANNELS 3 Zrotation Xrotation Yrotation
      JOINT rShin
      {
        OFFSET 0 -36.8199 0.73152
        CHANNELS 3 Zrotation Xrotation Yrotation
        JOINT rFoot
        {
          OFFSET 0.73152 -45.1104 -5.12064
          CHANNELS 3 Zrotation Xrotation Yrotation
          End Site
          {
            OFFSET -1.1221 -3.69964 12.103
          }
        }
      }
    }
  }
  JOINT lButtock
  {
    OFFSET 8.77824 4.35084 1.2192
    CHANNELS 3 Zrotation Xrotation Yrotation
    JOINT lThigh
    {
      OFFSET 0 -1.70687 -2.19456
      CHANNELS 3 Zrotation Xrotation Yrotation
      JOINT lShin
      {
        OFFSET 0 -36.8199 0.73152
        CHANNELS 3 Zrotation Xrotation Yrotation
        JOINT lFoot
        {
          OFFSET -0.73152 -45.1104 -5.12064
          CHANNELS 3 Zrotation Xrotation Yrotation
          End Site
          {
            OFFSET 1.1221 -3.69964 12.103
          }
        }
      }
    }
  }
}
MOTION
Frames:	6
Frame Time:	0.00833333
-32.5702 84.2394 60.6268 6.42933 -5.38682 124.216 -5.0225 11.2629 -13.4816 7.6828 -4.30642 -3.77721 -9.47644 20.797 -16.9162 30.7689 9.11345 -47.9963 -0 0 0 -0 0 0 -3.03024e-013 4.42614e-013 1.14771e-013 79.9648 7.43432 -2.98088 -15.1251 -7.89897 27.8464 -0.0212092 4.13986 0.582855 1.49416e-009 -3.58764e-009 2.59599e-009 2.58695e-009 -6.20624e-009 4.4882e-009 1.49417e-009 -3.58764e-009 2.59598e-009 7.73091 5.47488 0.417314 1.49416e-009 -3.58764e-009 2.59599e-009 2.90554 0.965183 0.102902 1.49417e-009 -3.58764e-009 2.59599e-009 10.2786 0.731801 0.0259123 1.49416e-009 -3.58764e-009 2.59599e-009 2.22167 -0.733487 -0.20892 -3.03102e-013 4.42598e-013 1.14564e-013 -71.9307 30.9653 -17.0897 16.0615 -8.74703 -29.7962 0.0158143 3.69949 -0.5206 1.37165e-009 -1.26482e-010 1.46729e-009 2.37389e-009 -2.17219e-010 2.53008e-009 1.37164e-009 -1.26482e-010 1.4673e-009 -7.73091 5.47488 -0.417314 1.37165e-009 -1.26483e-010 1.46729e-009 -2.90554 0.965183 -0.102902 1.37164e-009 -1.26482e-010 1.46729e-009 -10.2786 0.731801 -0.0259123 1.37165e-009 -1.26479e-010 1.46728e-009 -2.22167 -0.733487 0.20892 -2.03217e-016 0 -3.88251e-019 -8.53481 -32.8218 -1.97087 -0.376209 41.8407 0.796315 -0.249709 -2.61271 1.72633 2.03217e-016 0 3.88251e-019 -6.24362 5.01059 1.02524 -0.0238231 15.8718 -0.528413 -0.680453 -3.33548 -13.3533 
-32.1079 84.2717 60.9687 6.32409 -5.3547 123.818 -4.95395 11.2525 -13.5849 7.65165 -4.48038 -3.79608 -9.33171 21.0302 -16.8638 30.7663 9.11581 -47.9828 -0 0 0 -0 0 0 -3.08494e-013 4.21428e-013 9.22858e-014 79.9119 7.68956 -2.99695 -15.1869 -7.95305 27.974 -0.0217324 4.2047 0.592006 1.79374e-009 -3.9147e-009 2.74145e-009 3.10666e-009 -6.77113e-009 4.73702e-009 1.79374e-009 -3.91469e-009 2.74144e-009 7.73091 5.47488 0.417314 1.79374e-009 -3.91469e-009 2.74144e-009 2.90554 0.965183 0.102902 1.79375e-009 -3.91469e-009 2.74144e-009 10.2786 0.731801 0.0259123 1.79374e-009 -3.9147e-009 2.74145e-009 2.22167 -0.733487 -0.20892 -3.08554e-013 4.21419e-013 9.2087e-014 -72.4127 30.5293 -16.4593 15.7386 -8.44664 -29.1229 0.0218115 4.21233 -0.593083 1.31555e-009 -5.04395e-010 1.41914e-009 2.27588e-009 -8.71335e-010 2.44734e-009 1.31555e-009 -5.04395e-010 1.41915e-009 -7.73091 5.47488 -0.417314 1.31556e-009 -5.04395e-010 1.41914e-009 -2.90554 0.965183 -0.102902 1.31555e-009 -5.04395e-010 1.41915e-009 -10.2786 0.731801 -0.0259123 1.31556e-009 -5.04391e-010 1.41914e-009 -2.22167 -0.733487 0.20892 -2.03217e-016 0 -3.88251e-019 -8.56375 -32.9116 -1.60596 -0.409523 43.3221 0.835744 -0.269631 -2.6725 1.52408 2.03217e-016 0 3.88251e-019 -6.04226 4.0681 0.802833 -0.0247488 16.7303 -0.529956 -0.745728 -3.4264 -13.611 
-31.677 84.3316 61.2969 6.3242 -5.41741 123.385 -5.0376 11.2546 -13.6409 7.68064 -4.51719 -3.81571 -9.30548 21.126 -16.8511 30.9012 9.14662 -48.031 -0 0 0 -0 0 0 -2.05662e-013 2.79866e-013 2.15722e-013 79.8002 7.79762 -2.9046 -15.2293 -7.99011 28.0625 -0.0233818 4.3749 0.61605 8.18549e-010 -2.67618e-009 1.92512e-009 1.41932e-009 -4.63228e-009 3.32952e-009 8.1855e-010 -2.67617e-009 1.92511e-009 7.73091 5.47488 0.417314 8.18545e-010 -2.67617e-009 1.92512e-009 2.90554 0.965183 0.102902 8.18557e-010 -2.67617e-009 1.92512e-009 10.2786 0.731801 0.0259123 8.18547e-010 -2.67617e-009 1.92512e-009 2.22167 -0.733487 -0.20892 -2.05736e-013 2.79861e-013 2.15506e-013 -72.8254 30.2489 -15.9546 15.4494 -8.18455 -28.5215 0.0250937 4.46279 -0.628527 4.07418e-010 -6.98746e-010 1.15479e-009 7.07183e-010 -1.20794e-009 1.9952e-009 4.07413e-010 -6.98746e-010 1.1548e-009 -7.73091 5.47488 -0.417314 4.07419e-010 -6.98746e-010 1.15479e-009 -2.90554 0.965183 -0.102902 4.07412e-010 -6.98746e-010 1.15479e-009 -10.2786 0.731801 -0.0259123 4.07424e-010 -6.98743e-010 1.15479e-009 -2.22167 -0.733487 0.20892 -2.03217e-016 0 -3.88251e-019 -8.76815 -32.9436 -1.27883 -0.447508 44.889 0.880955 -0.2463 -2.73131 1.61238 2.03217e-016 0 3.88251e-019 -5.99928 3.31302 0.560793 -0.025632 17.3461 -0.529124 -0.778188 -3.41879 -13.8458 
-31.2492 84.3641 61.6378 6.38103 -5.54121 122.92 -5.22454 11.251 -13.6829 7.74368 -4.476 -3.83974 -9.33903 21.1464 -16.852 31.1195 9.20625 -48.1114 -0 0 0 -0 0 0 -3.2746e-014 5.30767e-014 4.29928e-013 79.6625 7.82095 -2.75273 -15.2542 -8.01189 28.1143 -0.0262814 4.6427 0.653915 -9.35818e-010 -4.66012e-010 5.18363e-010 -1.61678e-009 -8.15414e-010 9.0497e-010 -9.35818e-010 -4.66007e-010 5.18359e-010 7.73091 5.47488 0.417314 -9.35822e-010 -4.66005e-010 5.18365e-010 2.90554 0.965183 0.102902 -9.35811e-010 -4.66006e-010 5.18365e-010 10.2786 0.731801 0.0259123 -9.35821e-010 -4.66006e-010 5.18372e-010 2.22167 -0.733487 -0.20892 -3.2852e-014 5.30737e-014 4.29682e-013 -73.2053 30.0446 -15.4972 15.1734 -7.94022 -27.9488 0.0261046 4.55144 -0.641068 -1.06009e-009 -8.32635e-010 7.43591e-010 -1.82725e-009 -1.44011e-009 1.2922e-009 -1.0601e-009 -8.32634e-010 7.43598e-010 -7.73091 5.47488 -0.417314 -1.06009e-009 -8.32633e-010 7.43593e-010 -2.90554 0.965183 -0.102902 -1.0601e-009 -8.32635e-010 7.43593e-010 -10.2786 0.731801 -0.0259123 -1.06009e-009 -8.32633e-010 7.43587e-010 -2.22167 -0.733487 0.20892 -2.03217e-016 0 -3.88251e-019 -9.07846 -32.9385 -0.973289 -0.491171 46.5395 0.932442 -0.200307 -2.76109 1.8531 2.03217e-016 0 3.88251e-019 -6.05361 2.66589 0.291539 -0.026763 17.8067 -0.526334 -0.784727 -3.32926 -14.0743 
-30.7704 84.3613 61.9086 6.45039 -5.65871 122.444 -5.41909 11.251 -13.709 7.80734 -4.41382 -3.86184 -9.38247 21.1517 -16.8589 31.359 9.2651 -48.1988 -0 0 0 -0 0 0 1.36293e-013 -1.67252e-013 6.12921e-013 79.5341 7.78545 -2.6019 -15.2816 -8.0362 28.171 -0.0293816 4.89765 0.690007 -2.52287e-009 1.67025e-009 -8.58278e-010 -4.36355e-009 2.87473e-009 -1.46849e-009 -2.52287e-009 1.67026e-009 -8.5828e-010 7.73091 5.47488 0.417314 -2.52287e-009 1.67026e-009 -8.58273e-010 2.90554 0.965183 0.102902 -2.52286e-009 1.67026e-009 -8.58275e-010 10.2786 0.731801 0.0259123 -2.52287e-009 1.67026e-009 -8.58266e-010 2.22167 -0.733487 -0.20892 1.36154e-013 -1.67253e-013 6.12645e-013 -73.5691 29.8705 -15.0356 14.9012 -7.70468 -27.3864 0.0263091 4.59807 -0.647644 -2.35193e-009 -8.78588e-010 3.19043e-010 -4.05832e-009 -1.52011e-009 5.65193e-010 -2.35193e-009 -8.78586e-010 3.19049e-010 -7.73091 5.47488 -0.417314 -2.35192e-009 -8.78585e-010 3.19046e-010 -2.90554 0.965183 -0.102902 -2.35193e-009 -8.78587e-010 3.19046e-010 -10.2786 0.731801 -0.0259123 -2.35192e-009 -8.78587e-010 3.1904e-010 -2.22167 -0.733487 0.20892 -2.03217e-016 0 -3.88251e-019 -9.37367 -32.8638 -0.652327 -0.539144 48.184 0.987313 -0.140787 -2.78228 2.17755 2.03217e-016 0 3.88251e-019 -6.12344 2.06984 0.00376873 -0.0277333 18.2089 -0.521529 -0.781771 -3.22198 -14.2602 
-30.2817 84.3479 62.1334 6.49046 -5.70611 121.978 -5.5256 11.2636 -13.7175 7.83806 -4.38763 -3.87564 -9.38592 21.2023 -16.8641 31.5571 9.29384 -48.268 -0 0 0 -0 0 0 2.27495e-013 -2.89431e-013 6.42721e-013 79.4505 7.71713 -2.51266 -15.3315 -8.08075 28.2738 -0.0311233 5.02934 0.708667 -2.9961e-009 2.68708e-009 -1.58426e-009 -5.18295e-009 4.63342e-009 -2.72272e-009 -2.9961e-009 2.68708e-009 -1.58426e-009 7.73091 5.47488 0.417314 -2.9961e-009 2.68708e-009 -1.58426e-009 2.90554 0.965183 0.102902 -2.99609e-009 2.68708e-009 -1.58426e-009 10.2786 0.731801 0.0259123 -2.9961e-009 2.68708e-009 -1.58425e-009 2.22167 -0.733487 -0.20892 2.27339e-013 -2.89431e-013 6.42422e-013 -73.9304 29.6791 -14.5197 14.6232 -7.46842 -26.8164 0.0274305 4.72248 -0.665224 -2.73303e-009 -8.09131e-010 1.46465e-011 -4.71693e-009 -1.40022e-009 4.10156e-011 -2.73303e-009 -8.09129e-010 1.46528e-011 -7.73091 5.47488 -0.417314 -2.73303e-009 -8.09129e-010 1.46496e-011 -2.90554 0.965183 -0.102902 -2.73303e-009 -8.09131e-010 1.46488e-011 -10.2786 0.731801 -0.0259123 -2.73302e-009 -8.09132e-010 1.46433e-011 -2.22167 -0.733487 0.20892 -2.03217e-016 0 -3.88251e-019 -9.5339 -32.6867 -0.279567 -0.589023 49.7327 1.04177 -0.0767185 -2.81536 2.51708 2.03217e-016 0 3.88251e-019 -6.12759 1.46801 -0.293761 -0.02815 18.6493 -0.514675 -0.786913 -3.16082 -14.3673 
